<?xml version="1.0" encoding="UTF-8" standalone="no"?>
<svg width="520px" height="55px" viewBox="0 0 520 55" version="1.1" xmlns="http://www.w3.org/2000/svg" xmlns:xlink="http://www.w3.org/1999/xlink">
    <!-- Generator: Sketch 39.1 (31720) - http://www.bohemiancoding.com/sketch -->
    <title>MA Logo 2</title>
    <desc>Created with Sketch.</desc>
    <defs></defs>
    <g id="Page-3" stroke="none" stroke-width="1" fill="none" fill-rule="evenodd">
        <g id="MA-Logo-2">
            <g id="Layer_2">
                <g>
                    <g id="Layer_1-2">
                        <circle id="Oval" fill="#00F5A9" cx="79.18" cy="44.26" r="10.14"></circle>
                        <path d="M76.75,17.62 C76.7847366,17.0173295 76.656951,16.4163921 76.38,15.88 L71.78,6.58 C71.69,6.35 71.6,6.12 71.49,5.9 L71.49,5.9 C71.3833333,5.68 71.2733333,5.46333333 71.16,5.25 L71.16,5.25 C71.04,5.03666667 70.9133333,4.83 70.78,4.63 L70.78,4.63 C70.65,4.43 70.51,4.23 70.36,4.04 L70.36,3.98 C70.052023,3.6066979 69.7178439,3.25580979 69.36,2.93 L69.29,2.86 C68.9508211,2.53893401 68.5899703,2.24156624 68.21,1.97 L68.12,1.9 L67.54,1.52 L67.54,1.52 L66.97,1.21 L66.78,1 L66.16,0.77 L66,0.73 L65.47,0.51 L65.36,0.51 L64.71,0.29 L64.57,0.29 L63.94,0.14 L63.86,0.14 L63.17,0 L63,0 L62.28,0 L62.28,0 L61.56,0 L61.4,0 L60.71,0.08 L60.63,0.08 L60,0.26 L59.86,0.26 L59.2,0.48 L59.09,0.48 L58.51,0.69 L58.4,0.69 L57.79,1 L57.68,1.05 L57.11,1.36 L57.11,1.36 L56.53,1.74 L56.44,1.8 C56.059209,2.07049598 55.6982852,2.36792391 55.36,2.69 L55.29,2.75 C54.9317725,3.07899083 54.5975832,3.43323154 54.29,3.81 L54.29,3.86 C54.1433333,4.05333333 54.0033333,4.25 53.87,4.45 L53.87,4.45 C53.7366667,4.65 53.61,4.85666667 53.49,5.07 L53.49,5.07 C53.37,5.28333333 53.26,5.5 53.16,5.72 L53.16,5.72 C53.06,5.94 52.96,6.17 52.87,6.4 L36.87,38.71 C34.8196833,41.9869538 34.8108554,46.1445706 36.8472376,49.4302018 C38.8836198,52.715833 42.6109272,54.5578522 46.4579087,54.179754 C50.3048901,53.8016558 53.6022569,51.2692207 54.96,47.65 L66.05,25.26 C67.93,21.4 70.18,20.39 73.24,20.8 C74.1298266,20.8544906 75.0040131,20.5477399 75.6646859,19.9491816 C76.3253587,19.3506234 76.7166535,18.5108695 76.75,17.62 L76.75,17.62 Z" id="Shape" fill="#00F5A9"></path>
                        <path d="M41.5,17.62 C41.5347366,17.0173295 41.406951,16.4163921 41.13,15.88 L36.53,6.58 C36.44,6.35 36.35,6.12 36.24,5.9 L36.24,5.9 C36.1333333,5.68 36.0233333,5.46333333 35.91,5.25 L35.91,5.25 C35.79,5.03666667 35.6633333,4.83 35.53,4.63 L35.53,4.63 C35.4,4.43 35.26,4.23 35.11,4.04 L35.11,3.98 C34.802023,3.6066979 34.4678439,3.25580979 34.11,2.93 L34,2.77 C33.6608211,2.44893401 33.2999703,2.15156624 32.92,1.88 L32.83,1.81 L32.25,1.43 L32.25,1.43 L31.68,1.12 L31.53,1 L30.91,0.77 L30.8,0.77 L30.22,0.51 L30.11,0.51 L29.46,0.29 L29.32,0.29 L28.69,0.14 L28.61,0.14 L27.92,0 L27.76,0 L27,0 L27,0 L26.28,0 L26.12,0 L25.43,0.08 L25.35,0.08 L24.73,0.2 L24.59,0.2 L24,0.48 L23.89,0.48 L23.31,0.69 L23.2,0.69 L22.54,1 L22.43,1.05 L21.86,1.36 L21.86,1.36 L21.28,1.74 L21.19,1.8 C20.809209,2.07049598 20.4482852,2.36792391 20.11,2.69 L20,2.84 C19.6417725,3.16899083 19.3075832,3.52323154 19,3.9 L19,4 C18.8533333,4.19333333 18.7133333,4.39 18.58,4.59 L18.58,4.59 C18.4466667,4.79 18.32,4.99666667 18.2,5.21 L18.2,5.21 C18.08,5.42333333 17.97,5.64 17.87,5.86 L17.87,5.86 C17.77,6.08 17.67,6.31 17.58,6.54 L1.58,38.85 C-0.470316666,42.1269538 -0.479144614,46.2845706 1.55723759,49.5702018 C3.59361979,52.855833 7.32092717,54.6978522 11.1679087,54.319754 C15.0148901,53.9416558 18.3122569,51.4092207 19.67,47.79 L30.8,25.26 C32.68,21.4 34.93,20.39 37.99,20.8 C38.8798266,20.8544906 39.7540131,20.5477399 40.4146859,19.9491816 C41.0753587,19.3506234 41.4666535,18.5108695 41.5,17.62 L41.5,17.62 Z" id="Shape" fill="#6022D6"></path>
                        <path d="M141,43 C139.483495,42.9945153 138.255485,41.7665054 138.25,40.25 L138.25,25.41 L132,31.53 C130.924864,32.5924524 129.195136,32.5924524 128.12,31.53 L122,25.42 L122,40.29 C122,41.8115445 120.766544,43.045 119.245,43.045 C117.723456,43.045 116.49,41.8115445 116.49,40.29 L116.49,18.79 C116.474949,17.6699513 117.138347,16.6518881 118.169059,16.2132877 C119.19977,15.7746872 120.393348,16.0025472 121.19,16.79 L130.08,25.64 L139,16.84 C139.793032,16.0419301 140.992215,15.8074193 142.027467,16.247952 C143.062719,16.6884848 143.725211,17.7151977 143.7,18.84 L143.7,40.34 C143.647314,41.8021596 142.462783,42.9691422 141,43 L141,43 Z" id="Shape" fill="#6022D6"></path>
                        <path d="M160.15,43 C152.694156,43 146.65,36.9558441 146.65,29.5 C146.65,22.0441559 152.694156,16 160.15,16 C167.605844,16 173.65,22.0441559 173.65,29.5 C173.638986,36.951277 167.601277,42.9889855 160.15,43 L160.15,43 Z M160.15,21.5 C155.731722,21.5 152.15,25.081722 152.15,29.5 C152.15,33.918278 155.731722,37.5 160.15,37.5 C164.568278,37.5 168.15,33.918278 168.15,29.5 C168.127986,25.097351 164.552704,21.539945 160.15,21.54 L160.15,21.5 Z" id="Shape" fill="#6022D6"></path>
                        <path d="M484.73,43 C478.399146,42.9984138 472.91977,38.5977074 471.552147,32.4163385 C470.184524,26.2349696 473.296059,19.9335308 479.035362,17.2614318 C484.774665,14.5893327 491.599903,16.264419 495.45,21.29 C496.134303,22.0631872 496.329815,23.1536654 495.956752,24.1164284 C495.583688,25.0791914 494.704446,25.7532099 493.677829,25.8634282 C492.651213,25.9736465 491.648932,25.5016297 491.08,24.64 C488.963168,21.8703244 485.296568,20.7902256 482.016305,21.9700368 C478.736041,23.149848 476.597381,26.3179227 476.729617,29.8013974 C476.861853,33.2848721 479.234538,36.2816918 482.594806,37.2094221 C485.955074,38.1371524 489.529236,36.7821874 491.43,33.86 C491.965898,33.0365028 492.900419,32.5614584 493.881538,32.6138114 C494.862657,32.6661645 495.741318,33.2379612 496.186538,34.1138114 C496.631758,34.9896617 496.575898,36.0365028 496.04,36.86 C493.5547,40.6916957 489.297122,43.0030599 484.73,43 L484.73,43 Z" id="Shape" fill="#6022D6"></path>
                        <path d="M258.63,43 C252.532146,42.9961369 247.193913,38.9050054 245.604942,33.0178151 C244.015971,27.1306248 246.570794,20.9091328 251.8386,17.8376422 C257.106407,14.7661516 263.779229,15.6072967 268.12,19.89 C268.820241,20.5813089 269.098481,21.5936786 268.84991,22.5457592 C268.601339,23.4978397 267.863721,24.2449875 266.91491,24.5057592 C265.966098,24.7665308 264.950241,24.5013089 264.25,23.81 C261.724489,21.3146591 257.85651,20.7823193 254.750808,22.5026514 C251.645105,24.2229835 250.044755,27.784378 250.820582,31.2489159 C251.596408,34.7134539 254.562786,37.2522043 258.105572,37.4837162 C261.648358,37.715228 264.919899,35.5841093 266.14,32.25 L261.14,32.25 C259.618456,32.25 258.385,31.0165445 258.385,29.495 C258.385,27.9734555 259.618456,26.74 261.14,26.74 L269.4,26.74 C270.916505,26.7454847 272.144515,27.9734946 272.15,29.49 C272.14448,36.9529843 266.092986,43.000002 258.63,43 L258.63,43 Z" id="Shape" fill="#6022D6"></path>
                        <path d="M187.32,43 L187.32,43 C186.290574,42.9941708 185.349947,42.4159164 184.88,41.5 L173.92,20 C173.229644,18.6441409 173.769141,16.985356 175.125,16.295 C176.480859,15.6046441 178.139644,16.144141 178.83,17.5 L187.35,34.24 L196.11,17.47 C196.574445,16.5964856 197.469625,16.0371035 198.458333,16.0025677 C199.447041,15.9680319 200.37907,16.4635891 200.903333,17.3025678 C201.427596,18.1415464 201.464445,19.1964856 201,20.07 L189.76,41.57 C189.271234,42.4588213 188.334314,43.0079182 187.32,43 L187.32,43 Z" id="Shape" fill="#6022D6"></path>
                        <path d="M207.11,43 C205.593495,42.9945153 204.365485,41.7665054 204.36,40.25 L204.36,18.79 C204.36,17.2684555 205.593456,16.035 207.115,16.035 C208.636544,16.035 209.87,17.2684555 209.87,18.79 L209.87,40.29 C209.842736,41.7947443 208.614991,43.000247 207.11,43 L207.11,43 Z" id="Shape" fill="#6022D6"></path>
                        <path d="M239.07,43 C238.339548,43.0028969 237.637955,42.7150639 237.12,42.2 L220.25,25.42 L220.25,40.29 C220.25,41.8115445 219.016544,43.045 217.495,43.045 C215.973456,43.045 214.74,41.8115445 214.74,40.29 L214.74,18.79 C214.714789,17.6651977 215.377281,16.6384848 216.412533,16.197952 C217.447785,15.7574193 218.646968,15.9919301 219.44,16.79 L236.31,33.61 L236.31,18.79 C236.31,17.2684555 237.543456,16.035 239.065,16.035 C240.586544,16.035 241.82,17.2684555 241.82,18.79 L241.82,40.29 C241.798134,41.7931392 240.573298,43.000159 239.07,43 L239.07,43 Z" id="Shape" fill="#6022D6"></path>
                        <path d="M314,43.11 C312.966326,43.1101918 312.019852,42.5307179 311.55,41.61 L302.91,24.79 L294.17,41.62 C293.468598,42.9703362 291.805336,43.4964016 290.455,42.795 C289.104664,42.0935984 288.578598,40.4303362 289.28,39.08 L300.5,17.52 C300.962686,16.5947159 301.905508,16.007384 302.94,16 L302.94,16 C303.970074,16.0035578 304.911788,16.58248 305.38,17.5 L316.47,39.1 C316.899026,39.9530889 316.856612,40.9673354 316.357859,41.7816262 C315.859106,42.595917 314.974879,43.0945533 314.02,43.1 L314,43.11 Z" id="Shape" fill="#6022D6"></path>
                        <path d="M344,43.11 C343.246397,43.1158742 342.523405,42.8122174 342,42.27 L325.81,25.59 L325.81,40.36 C325.81,41.8815445 324.576544,43.115 323.055,43.115 C321.533456,43.115 320.3,41.8815445 320.3,40.36 L320.3,18.79 C320.317158,17.6845003 320.992388,16.6959234 322.015911,16.2778034 C323.039434,15.8596833 324.213706,16.0927191 325,16.87 L341.2,33.55 L341.2,18.27 C341.2,16.7484555 342.433456,15.515 343.955,15.515 C345.476544,15.515 346.71,16.7484555 346.71,18.27 L346.71,40.36 C346.704807,41.8610992 345.500862,43.082815 344,43.11 L344,43.11 Z" id="Shape" fill="#6022D6"></path>
                        <path d="M352.62,43.11 C351.665121,43.1045533 350.780894,42.605917 350.282141,41.7916262 C349.783388,40.9773354 349.740974,39.9630889 350.17,39.11 L361.25,17.54 C361.708713,16.6037436 362.657436,16.0074035 363.7,16 L363.7,16 C364.725694,15.9996943 365.666316,16.5702357 366.14,17.48 L377.37,39.05 C378.074163,40.4003362 377.550336,42.0658368 376.2,42.7699998 C374.849664,43.4741628 373.184163,42.9503361 372.48,41.6 L363.71,24.76 L355.06,41.59 C354.597314,42.5152841 353.654492,43.102616 352.62,43.11 L352.62,43.11 Z" id="Shape" fill="#6022D6"></path>
                        <path d="M400.17,43.11 L384.49,43.11 C382.973495,43.1045153 381.745485,41.8765054 381.74,40.36 L381.74,18.83 C381.74,17.3084555 382.973456,16.075 384.495,16.075 C386.016544,16.075 387.25,17.3084555 387.25,18.83 L387.25,37.6 L400.18,37.6 C401.701544,37.6 402.935,38.8334555 402.935,40.355 C402.935,41.8765445 401.701544,43.11 400.18,43.11 L400.17,43.11 Z" id="Shape" fill="#6022D6"></path>
                        <path d="M453.07,21.54 L433.21,21.54 C431.688456,21.54 430.455,20.3065445 430.455,18.785 C430.455,17.2634555 431.688456,16.03 433.21,16.03 L453.08,16.03 C454.601544,16.03 455.835,17.2634555 455.835,18.785 C455.835,20.3065445 454.601544,21.54 453.08,21.54 L453.07,21.54 Z" id="Shape" fill="#6022D6"></path>
                        <path d="M443.14,43.11 C441.623495,43.1045153 440.395485,41.8765054 440.39,40.36 L440.39,18.79 C440.39,17.2684555 441.623456,16.035 443.145,16.035 C444.666544,16.035 445.9,17.2684555 445.9,18.79 L445.9,40.36 C445.894491,41.8803992 444.660409,43.11001 443.14,43.11 L443.14,43.11 Z" id="Shape" fill="#6022D6"></path>
                        <path d="M462.73,43.11 C461.221311,43.0936098 460.005378,41.8687687 460,40.36 L460,18.87 C460,17.3484555 461.233456,16.115 462.755,16.115 C464.276544,16.115 465.51,17.3484555 465.51,18.87 L465.51,40.36 C465.507361,41.0937412 465.21266,41.7962314 464.691017,42.3122459 C464.169373,42.8282604 463.463727,43.1153217 462.73,43.11 L462.73,43.11 Z" id="Shape" fill="#6022D6"></path>
                        <path d="M426,16.82 C425.483838,16.3009289 424.782023,16.0090719 424.05,16.0090719 C423.317977,16.0090719 422.616162,16.3009289 422.1,16.82 L413.45,25.63 L404.88,16.83 C403.819613,15.7392376 402.075762,15.7146133 400.985,16.775 C399.894238,17.8353867 399.869613,19.5792376 400.93,20.67 L410.69,30.67 L410.69,40.29 C410.69,41.8115445 411.923456,43.045 413.445,43.045 C414.966544,43.045 416.2,41.8115445 416.2,40.29 L416.2,30.74 L426.03,20.74 C426.551311,20.2190615 426.841711,19.5106764 426.836071,18.7737163 C426.830431,18.0367562 426.529223,17.3328987 426,16.82 L426,16.82 Z" id="Shape" fill="#6022D6"></path>
                        <path d="M510.3,43.08 L509.53,43.08 C506.261528,42.9286281 503.142756,41.665596 500.69,39.5 C499.585431,38.4534204 499.538421,36.7095696 500.585,35.6050001 C501.63158,34.5004307 503.37543,34.4534205 504.48,35.5 C505.993884,36.7627535 507.880505,37.4935113 509.85,37.58 C512.35,37.72 514.38,36.51 514.44,35.37 C514.49,34.43 513.3,33.37 511.66,32.9 L511.66,32.9 L507.49,31.7 L507.43,31.7 C503.2,30.47 500.51,27.23 500.72,23.62 C500.98,19.15 505.56,15.91 511.13,16.23 C513.279727,16.3178802 515.376174,16.9251978 517.24,18 C518.111728,18.4572999 518.673272,19.3449239 518.713102,20.3285125 C518.752933,21.3121012 518.265,22.242224 517.433102,22.7685127 C516.601205,23.2948013 515.551728,23.3373001 514.68,22.88 C513.508513,22.1390519 512.164606,21.7152045 510.78,21.65 C508.29,21.51 506.25,22.72 506.19,23.86 C506.14,24.8 507.33,25.86 508.98,26.34 L509.05,26.34 L513.14,27.52 L513.14,27.52 C517.41,28.73 520.14,31.99 519.94,35.62 C519.7,39.93 515.53,43.08 510.3,43.08 L510.3,43.08 Z" id="Shape" fill="#6022D6"></path>
                    </g>
                </g>
            </g>
        </g>
    </g>
</svg>